<?xml version="1.0" standalone="no"?>
<!DOCTYPE svg PUBLIC "-//W3C//DTD SVG 20010904//EN"
 "http://www.w3.org/TR/2001/REC-SVG-20010904/DTD/svg10.dtd">
<svg version="1.0" xmlns="http://www.w3.org/2000/svg"
 width="512.000000pt" height="512.000000pt" viewBox="0 0 512.000000 512.000000"
 preserveAspectRatio="xMidYMid meet">

<g transform="translate(0.000000,512.000000) scale(0.100000,-0.100000)"
fill="#000000" stroke="none">
<path d="M2990 5105 c-1100 -135 -1853 -1183 -1630 -2270 36 -176 116 -393
198 -535 l40 -68 -132 -103 c-709 -558 -927 -742 -1167 -985 -172 -175 -200
-208 -233 -274 -117 -240 -74 -504 113 -691 161 -161 386 -217 601 -150 121
38 175 80 408 315 242 245 397 432 1019 1229 l21 27 62 -36 c316 -185 737
-273 1121 -233 257 26 607 137 681 215 84 89 73 220 -25 298 -31 25 -49 31
-101 34 -55 4 -73 0 -144 -31 -99 -44 -218 -80 -337 -104 -128 -25 -395 -24
-530 1 -617 115 -1096 594 -1211 1211 -26 138 -26 392 0 530 114 610 571 1074
1186 1206 151 33 428 33 580 0 312 -66 540 -190 765 -416 226 -225 350 -453
416 -765 19 -86 23 -138 23 -285 1 -271 -36 -428 -161 -688 -83 -174 -88 -202
-46 -284 46 -89 166 -128 258 -83 58 28 91 73 160 215 349 721 220 1558 -330
2143 -407 433 -1011 650 -1605 577z m-1112 -3228 l33 -34 -267 -339 c-481
-612 -581 -729 -796 -941 -120 -118 -151 -143 -188 -153 -158 -43 -293 92
-250 250 10 37 35 68 153 188 182 186 324 307 808 693 451 360 462 369 470
369 3 0 20 -15 37 -33z"/>
<path d="M3152 4309 c-48 -14 -109 -80 -123 -131 -23 -88 12 -182 85 -228 26
-16 62 -24 133 -31 129 -12 200 -31 292 -79 132 -69 231 -166 297 -294 66
-127 126 -171 225 -164 154 11 225 155 152 309 -107 229 -329 443 -559 539
-162 67 -413 107 -502 79z"/>
</g>
</svg>
