<?xml version="1.0" standalone="no"?>
<!DOCTYPE svg PUBLIC "-//W3C//DTD SVG 20010904//EN"
 "http://www.w3.org/TR/2001/REC-SVG-20010904/DTD/svg10.dtd">
<svg version="1.0" xmlns="http://www.w3.org/2000/svg"
 width="800.000000pt" height="689.000000pt" viewBox="0 0 800.000000 689.000000"
 preserveAspectRatio="xMidYMid meet">

<g transform="translate(0.000000,689.000000) scale(0.100000,-0.100000)"
fill="#000000" stroke="none">
<path d="M3770 6644 c-706 -63 -1312 -310 -1832 -747 -531 -446 -911 -1068
-1063 -1738 -55 -245 -89 -598 -74 -769 3 -42 6 -51 7 -27 4 93 50 340 88 482
99 363 283 726 521 1025 98 124 331 355 463 460 353 281 782 477 1237 565 238
46 621 60 863 30 440 -54 874 -208 1131 -402 124 -93 369 -334 462 -454 220
-286 382 -615 468 -954 33 -127 34 -135 33 -335 0 -295 -44 -549 -139 -806
-92 -247 -257 -527 -394 -667 -174 -179 -433 -346 -701 -452 -218 -86 -525
-142 -715 -132 -311 16 -696 166 -969 375 -109 84 -253 231 -304 310 -200 312
-297 704 -263 1055 34 348 285 744 611 966 259 177 685 232 1030 135 303 -86
651 -457 717 -765 33 -154 18 -428 -29 -548 -45 -114 -58 -138 -95 -173 -14
-13 -23 -33 -23 -50 0 -21 -16 -45 -67 -97 -129 -129 -274 -218 -440 -267 -79
-23 -99 -25 -203 -21 -150 7 -248 33 -389 104 -90 45 -122 67 -158 108 -102
119 -173 267 -200 419 -15 89 -15 102 0 187 26 147 127 330 225 407 130 103
368 152 518 107 71 -21 165 -81 234 -149 93 -92 130 -187 130 -337 0 -192
-102 -341 -274 -399 -81 -28 -189 -25 -257 7 -24 12 -61 29 -82 38 -52 24
-140 158 -157 239 -15 75 -7 127 36 230 27 64 44 90 79 120 60 49 141 84 229
98 65 10 80 9 142 -10 39 -12 88 -33 110 -48 l39 -26 -30 31 c-16 18 -57 45
-90 62 -115 56 -243 61 -357 15 -32 -13 -55 -20 -52 -15 9 15 93 61 137 74 36
12 38 14 14 14 -41 1 -143 -36 -201 -73 -92 -59 -158 -147 -198 -266 l-19 -55
5 62 c3 35 17 90 30 123 14 33 23 60 21 60 -2 0 -20 -28 -39 -62 -55 -100 -69
-164 -64 -287 6 -124 27 -188 94 -289 l45 -67 -64 67 c-37 38 -76 92 -92 127
-16 33 -30 59 -32 57 -8 -7 47 -140 73 -178 117 -169 273 -267 456 -285 72 -7
72 -7 33 -16 -51 -11 -186 -2 -249 17 -72 22 -40 -1 40 -29 95 -33 206 -45
301 -34 166 21 286 83 414 212 40 41 41 41 23 9 -38 -68 -112 -148 -183 -199
-40 -29 -69 -53 -64 -53 18 0 162 88 211 129 62 52 130 138 166 208 14 29 34
60 44 70 33 32 46 108 45 263 -1 131 0 141 12 108 23 -62 37 -190 31 -268 -4
-54 -3 -68 5 -51 11 29 41 178 40 206 -1 50 -9 151 -14 165 -3 8 -17 54 -32
102 -15 48 -47 122 -72 165 -56 95 -190 231 -283 286 -78 46 -46 40 65 -12 95
-45 187 -113 251 -184 53 -59 50 -49 -11 38 -215 304 -632 438 -1002 320 -42
-13 -79 -23 -81 -20 -2 2 38 24 90 49 111 55 221 84 355 95 l98 7 -80 8 c-308
33 -615 -80 -828 -303 -102 -107 -176 -225 -229 -366 l-18 -50 5 55 c14 131
107 340 203 456 29 35 48 64 44 64 -16 0 -157 -154 -201 -219 -59 -86 -126
-230 -155 -332 -32 -112 -50 -272 -42 -368 10 -119 28 -235 37 -247 5 -6 18
-36 28 -67 21 -60 80 -183 113 -231 12 -20 2 -12 -27 19 -117 123 -203 292
-251 490 l-24 100 6 -99 c15 -255 129 -524 308 -729 156 -178 416 -332 646
-381 41 -9 95 -20 120 -26 34 -7 9 -8 -100 -5 -207 6 -383 53 -553 150 -94 53
-84 35 22 -39 141 -100 311 -175 501 -221 100 -25 390 -31 512 -11 251 41 506
162 692 328 74 66 59 34 -34 -72 -147 -166 -339 -294 -565 -376 -109 -40 -95
-42 43 -9 284 69 522 204 732 415 113 113 191 221 265 363 117 224 163 403
174 672 l6 170 19 -90 c21 -98 31 -316 17 -376 -5 -20 -5 -43 -1 -50 21 -37
-53 -356 -107 -462 -8 -16 -12 -31 -9 -34 10 -11 136 262 171 374 21 65 41
123 45 128 14 19 25 199 25 395 -1 217 -18 332 -75 511 -43 130 -156 355 -237
469 -77 108 -247 283 -342 353 -35 26 -59 47 -55 47 5 0 47 -21 94 -46 270
-145 516 -393 671 -679 53 -96 49 -69 -10 71 -256 603 -791 1018 -1456 1130
-202 35 -530 21 -723 -30 -28 -8 -50 -11 -47 -6 17 27 320 123 474 150 190 34
470 29 665 -11 54 -11 100 -18 103 -15 5 5 -157 59 -243 80 -303 77 -625 84
-934 21 -478 -98 -923 -370 -1225 -750 -74 -92 -134 -184 -206 -314 -32 -58
-59 -101 -59 -94 0 24 83 250 124 336 130 278 357 564 594 747 45 35 82 65 82
67 0 8 -114 -60 -200 -118 -468 -319 -811 -803 -949 -1342 -134 -520 -90
-1060 123 -1542 63 -140 -77 81 -170 270 -165 337 -241 683 -233 1064 2 88 3
158 2 157 -2 -1 -9 -38 -17 -82 -82 -449 -40 -927 119 -1360 92 -251 266 -550
443 -763 167 -201 432 -429 643 -556 183 -109 406 -207 610 -270 l84 -26 -80
6 c-204 15 -488 89 -715 187 -278 119 -491 256 -731 469 -57 51 -97 84 -88 73
378 -473 847 -795 1414 -973 831 -260 1759 -123 2475 366 l65 45 -92 -91
c-296 -289 -723 -533 -1146 -656 -146 -43 -322 -79 -472 -97 l-110 -13 120 -3
c333 -9 755 62 1090 183 442 160 820 397 1159 725 535 520 865 1194 951 1942
18 159 21 512 5 663 -77 741 -382 1397 -895 1924 -510 524 -1153 846 -1890
946 -115 16 -532 28 -635 19z"/>
</g>
</svg>
